<svg width="45" height="42" viewBox="0 0 45 42" fill="none" xmlns="http://www.w3.org/2000/svg">
<ellipse cx="22.6667" cy="21" rx="21.875" ry="21" fill="#032973"/>
<path d="M22.6667 9C15.7632 9 10.1667 14.3726 10.1667 21C10.1667 27.6274 15.7632 33 22.6667 33C29.5703 33 35.1667 27.6274 35.1667 21C35.1667 14.3726 29.5703 9 22.6667 9ZM22.6667 11.3226C28.2379 11.3226 32.7474 15.6509 32.7474 21C32.7474 22.6684 32.3086 24.2375 31.5357 25.6071C30.8601 24.33 29.6443 23.3067 28.1393 22.8697C28.8255 21.8617 29.194 20.6839 29.194 19.4516C29.194 15.9886 26.2747 13.1855 22.6667 13.1855C19.0594 13.1855 16.1395 15.988 16.1395 19.4516C16.1395 20.6839 16.508 21.8617 17.1942 22.8697C15.6911 23.3061 14.4743 24.3282 13.7977 25.6071C13.0249 24.2376 12.5861 22.6685 12.5861 21C12.5861 15.6517 17.0947 11.3226 22.6667 11.3226ZM18.6345 19.4516C18.6345 17.3137 20.4398 15.5806 22.6667 15.5806C24.8937 15.5806 26.699 17.3137 26.699 19.4516C26.699 21.5895 24.8937 23.3226 22.6667 23.3226C20.4398 23.3226 18.6345 21.5895 18.6345 19.4516ZM15.614 27.9166C15.6905 26.2715 17.1036 24.9603 18.8361 24.9603H19.5504C21.4827 25.971 23.8516 25.9707 25.7832 24.9603H26.4974C28.2299 24.9603 29.643 26.2715 29.7195 27.9166C25.8009 31.5995 19.5302 31.5972 15.614 27.9166Z" fill="#F2F2F2"/>
</svg>
