<?xml version="1.0" encoding="utf-8"?>
<!-- Generator: Adobe Illustrator 16.0.0, SVG Export Plug-In . SVG Version: 6.00 Build 0)  -->
<!DOCTYPE svg PUBLIC "-//W3C//DTD SVG 1.1//EN" "http://www.w3.org/Graphics/SVG/1.1/DTD/svg11.dtd">
<svg version="1.1" id="Layer_1" xmlns="http://www.w3.org/2000/svg" xmlns:xlink="http://www.w3.org/1999/xlink" x="0px" y="0px"
	 width="476px" height="454.195px" viewBox="0 0 476 454.195" enable-background="new 0 0 476 454.195" xml:space="preserve">
<pattern  x="-45" y="-51.7" width="70" height="61.426" patternUnits="userSpaceOnUse" id="New_Pattern_Swatch_3" viewBox="0 -61.426 70 61.426" overflow="visible">
	<g>
		<polygon fill="none" points="0,0 70,0 70,-61.426 0,-61.426 		"/>
		<polygon fill="#013047" points="70,0 0,0 0,-61.426 70,-61.426 		"/>
	</g>
</pattern>
<path fill="url(#New_Pattern_Swatch_3)" d="M458.336,220.866c-97.583-92.561-185.824-113.229-257.272-103.901l-9.049-27.872
	l-28.002,9.089l7.916,24.393c-95.485,24.299-154.265,98.188-154.265,98.188c2.036,7.622,5.194,15.019,9.268,22.159
	c0.764-0.897,1.524-1.739,2.288-2.622l7.843,24.174l14.004-4.546l-10.479-32.302c2.431-2.603,4.857-5.14,7.273-7.6l22.231,68.462
	l14.008-4.543l-24.481-75.405c2.655-2.494,5.291-4.91,7.904-7.24l33.011,101.716l14.004-4.546L79.641,190.967
	c2.749-2.243,5.465-4.407,8.149-6.47l41.333,127.341l14.004-4.546l-42.839-131.987c2.843-1.991,5.651-3.922,8.395-5.716
	l48.078,148.137l14.014-4.545l-49.203-151.598c2.973-1.749,5.863-3.379,8.661-4.897l53.988,166.362l14.004-4.545l-54.71-168.569
	c3.164-1.5,6.152-2.836,8.946-4.021l60.222,185.558l14.004-4.546l-60.47-186.303c7.506-2.558,11.779-3.434,11.779-3.434
	l63.592,200.009l9.056,27.905l28.005-9.089l-7.935-24.449C340.191,322.481,409.602,289.07,458.336,220.866z M260.674,300.637
	l-7.939-24.462c24.538-6.513,42.645-28.805,42.65-55.389c0.007-31.699-25.677-57.398-57.369-57.398
	c-7.283-0.003-14.22,1.404-20.63,3.873l-6-18.492c8.343-2.87,17.301-4.445,26.638-4.445c44.661,0.014,80.852,35.72,80.836,79.78
	C318.854,260.38,294.291,290.97,260.674,300.637z M289.706,311.454c29.809-17.681,49.807-50.167,49.815-87.339
	c0.012-34.597-17.293-65.135-43.702-83.472c40.142,12.149,83.808,37.021,129.929,80.771
	C389.804,271.711,340.658,299.786,289.706,311.454z"/>
<path fill="#FFFFFF" d="M281.02,447.145"/>
</svg>
