<?xml version="1.0" encoding="utf-8"?>
<!-- Generator: Adobe Illustrator 16.0.0, SVG Export Plug-In . SVG Version: 6.00 Build 0)  -->
<!DOCTYPE svg PUBLIC "-//W3C//DTD SVG 1.1//EN" "http://www.w3.org/Graphics/SVG/1.1/DTD/svg11.dtd">
<svg version="1.1" id="Layer_1" xmlns="http://www.w3.org/2000/svg" xmlns:xlink="http://www.w3.org/1999/xlink" x="0px" y="0px"
	 width="476px" height="454.195px" viewBox="0 0 476 454.195" enable-background="new 0 0 476 454.195" xml:space="preserve">
<pattern  x="-45" y="-51.7" width="70" height="61.426" patternUnits="userSpaceOnUse" id="New_Pattern_Swatch_3" viewBox="0 -61.426 70 61.426" overflow="visible">
	<g>
		<polygon fill="none" points="0,0 70,0 70,-61.426 0,-61.426 		"/>
		<polygon fill="#013047" points="70,0 0,0 0,-61.426 70,-61.426 		"/>
	</g>
</pattern>
<path fill="#FFFFFF" d="M281.02,447.145"/>
<g>
	<g>
		<path fill="url(#New_Pattern_Swatch_3)" d="M213.905,405.739c-42.702-10.128-73.494-40.902-77.852-74.107
			c-9.498,44.388,21.55,89.295,70.157,100.814c46.143,10.948,91.663-12.056,105.997-51.984
			C291.805,404.111,253.463,415.125,213.905,405.739z"/>
		<path fill="url(#New_Pattern_Swatch_3)" d="M312.207,35.762c0,14.796-11.988,26.792-26.791,26.792
			c-14.805,0-26.793-11.997-26.793-26.792c0-14.788,11.988-26.792,26.793-26.792C300.219,8.97,312.207,20.974,312.207,35.762z"/>
		<path fill="url(#New_Pattern_Swatch_3)" d="M264.44,192.724c-22.23-5.263-44.464-4.307-64.962,1.711
			c5.054-19.029,17.327-59.46,35.322-82.589c24.107-30.982,63.675-6.639,28.938,68.958c49.396,23.038,57.121,17.16,104.721,84.871
			c0,0-9.373-64.08-70.653-96.624c11.452-40.758-6.485-122.744-57.791-93.085c0,0,0-0.007-0.019-0.007
			c-80.714,19.457-105.643,104.478-105.643,104.478c24.361-32.392,46.315-51.238,63.868-62.204
			c-27.201,43.275-27.403,73.705-29.206,89.701c-28.158,17.167-49.737,45.218-57.983,79.954
			c-2.827,11.946-3.883,23.909-3.363,35.586c0.244-6.999,1.149-14.074,2.823-21.151c14.504-61.136,79.524-98.08,145.214-82.495
			c65.722,15.584,107.202,77.793,92.702,138.931c-14.416,60.802-78.766,97.646-144.075,82.756c0.343,0.085,0.667,0.167,1.036,0.26
			c68.412,16.229,137.085-26.354,153.416-95.129C375.098,277.862,332.846,208.955,264.44,192.724z"/>
	</g>
</g>
</svg>
