<?xml version="1.0" encoding="utf-8"?>
<!-- Generator: Adobe Illustrator 16.0.0, SVG Export Plug-In . SVG Version: 6.00 Build 0)  -->
<!DOCTYPE svg PUBLIC "-//W3C//DTD SVG 1.1//EN" "http://www.w3.org/Graphics/SVG/1.1/DTD/svg11.dtd">
<svg version="1.1" id="Layer_1" xmlns="http://www.w3.org/2000/svg" xmlns:xlink="http://www.w3.org/1999/xlink" x="0px" y="0px"
	 width="476px" height="454.195px" viewBox="0 0 476 454.195" enable-background="new 0 0 476 454.195" xml:space="preserve">
<pattern  x="-45" y="-51.7" width="70" height="61.426" patternUnits="userSpaceOnUse" id="New_Pattern_Swatch_3" viewBox="0 -61.426 70 61.426" overflow="visible">
	<g>
		<polygon fill="none" points="0,0 70,0 70,-61.426 0,-61.426 		"/>
		<polygon fill="#013047" points="70,0 0,0 0,-61.426 70,-61.426 		"/>
	</g>
</pattern>
<path fill="#FFFFFF" d="M281.02,447.145"/>
<path fill="url(#New_Pattern_Swatch_3)" stroke="#FFFFFF" stroke-width="0.25" stroke-miterlimit="10" d="M423.254,266.936
	c6.932-6.28-19.559-34.037-38.475-57.368c-18.901-23.32,33.415-37.185-30.264-118.517C290.851,9.718,160.364,7.184,92.242,80.951
	c-68.085,73.767-35.274,156.375-11.319,195.451c23.932,39.089,55.472,46.654,39.096,146.257l199.826,3.794
	c0,0-11.98-44.754,59.271-37.207c33.314-12.425,6.28-37.185,16.398-57.367c10.093-20.164-2.524-17.014-7.574-14.498
	c-5.043,2.518,25.229-13.249,7.574-23.34C385.396,271.988,416.305,273.245,423.254,266.936z M328.68,173.642
	c-27.747,8.19-38.479,14.497-34.686,40.343c3.771,25.847-48.526,37.839-67.46,27.738c-18.905-10.081-28.353-3.772-28.353-3.772
	c14.487,38.45-5.072,37.184-23.955,55.473c-18.927,18.291-73.142-5.039-66.835-32.153c6.318-27.104-32.153-38.45-18.912-65.577
	c13.23-27.095,2.525-42.84,18.28-60.507c15.766-17.664,11.349-37.848,39.698-46.661c28.394-8.826,7.597-13.875,61.172-20.807
	c53.595-6.931,24.586,16.389,76.898,17.023C336.86,85.386,356.408,165.441,328.68,173.642z"/>
</svg>
