<?xml version="1.0" encoding="utf-8"?>
<!-- Generator: Adobe Illustrator 16.0.0, SVG Export Plug-In . SVG Version: 6.00 Build 0)  -->
<!DOCTYPE svg PUBLIC "-//W3C//DTD SVG 1.1//EN" "http://www.w3.org/Graphics/SVG/1.1/DTD/svg11.dtd">
<svg version="1.1" id="Layer_1" xmlns="http://www.w3.org/2000/svg" xmlns:xlink="http://www.w3.org/1999/xlink" x="0px" y="0px"
	 width="476px" height="454.195px" viewBox="0 0 476 454.195" enable-background="new 0 0 476 454.195" xml:space="preserve">
<pattern  x="-45" y="-51.7" width="70" height="61.426" patternUnits="userSpaceOnUse" id="New_Pattern_Swatch_2" viewBox="0 -61.426 70 61.426" overflow="visible">
	<g>
		<polygon fill="none" points="0,0 70,0 70,-61.426 0,-61.426 		"/>
		<polygon fill="#209EBB" points="70,0 0,0 0,-61.426 70,-61.426 		"/>
	</g>
</pattern>
<pattern  x="-45" y="-51.7" width="70" height="61.426" patternUnits="userSpaceOnUse" id="New_Pattern_Swatch_3" viewBox="0 -61.426 70 61.426" overflow="visible">
	<g>
		<polygon fill="none" points="0,0 70,0 70,-61.426 0,-61.426 		"/>
		<polygon fill="#013047" points="70,0 0,0 0,-61.426 70,-61.426 		"/>
	</g>
</pattern>
<path fill="#FFFFFF" d="M281.02,447.145"/>
<g>
	<path fill="url(#New_Pattern_Swatch_2)" d="M186.898,308.669c0,0,82.01,54.429,144.639-54.439
		c48.752-62.491,85.751-54.43,100.657-91.717c14.924-37.278-52.175,27.598-93.953,27.598c-41.737,0,59.67-45.497,89.479-90.229
		c29.828-44.729-93.188,44.001-111.845,56.677c-18.622,12.675,52.198-83.508,64.145-108.877
		c11.921-25.343-35.816-18.63-90.237,91.726c-22.374,41.006-6.719-67.714,6.722-103.949c13.425-36.233-17.166-37.729-62.646,123.329
		c-51.452,75.315-70.073-11.927-97.666-27.589c-27.596-15.661-44.754-19.388,5.208,46.239
		C191.354,243.043,130.96,221.425,186.898,308.669z"/>
	<path fill="url(#New_Pattern_Swatch_3)" d="M289.122,425.067c0,0-82.01,54.42-144.648-54.439
		c-48.763-62.499-85.746-54.438-100.675-91.716c-14.896-37.278,52.199,27.581,93.96,27.581c41.755,0-59.649-45.481-89.475-90.212
		c-29.829-44.748,93.204,44,111.852,56.659c18.632,12.677-52.219-83.508-64.139-108.859c-11.917-25.352,35.79-18.631,90.241,91.726
		c22.354,40.997,6.701-67.716-6.725-103.95c-13.423-36.243,17.168-37.741,62.632,123.329c51.448,75.306,70.063-11.937,97.673-27.599
		c27.588-15.653,44.736-19.38-5.203,46.247C284.663,359.441,352.084,376.401,289.122,425.067z"/>
</g>
</svg>
