<?xml version="1.0" encoding="utf-8"?>
<!-- Generator: Adobe Illustrator 16.0.0, SVG Export Plug-In . SVG Version: 6.00 Build 0)  -->
<!DOCTYPE svg PUBLIC "-//W3C//DTD SVG 1.1//EN" "http://www.w3.org/Graphics/SVG/1.1/DTD/svg11.dtd">
<svg version="1.1" id="Layer_1" xmlns="http://www.w3.org/2000/svg" xmlns:xlink="http://www.w3.org/1999/xlink" x="0px" y="0px"
	 width="476px" height="454.195px" viewBox="0 0 476 454.195" enable-background="new 0 0 476 454.195" xml:space="preserve">
<pattern  x="-59.5" y="647.598" width="70" height="61.426" patternUnits="userSpaceOnUse" id="New_Pattern_Swatch_1" viewBox="0 -61.426 70 61.426" overflow="visible">
	<g>
		<polygon fill="none" points="0,0 70,0 70,-61.426 0,-61.426 		"/>
		<g>
			<polygon fill="none" points="0,-61.426 70,-61.426 70,0 0,0 			"/>
			<polygon fill="#8FCAE5" points="70,-61.426 0,-61.426 0,0 70,0 			"/>
		</g>
	</g>
</pattern>
<pattern  x="-59.5" y="647.598" width="70" height="61.426" patternUnits="userSpaceOnUse" id="New_Pattern_Swatch_2" viewBox="0 -61.426 70 61.426" overflow="visible">
	<g>
		<polygon fill="none" points="0,0 70,0 70,-61.426 0,-61.426 		"/>
		<g>
			<polygon fill="none" points="0,-61.426 70,-61.426 70,0 0,0 			"/>
			<polygon fill="#209EBB" points="70,-61.426 0,-61.426 0,0 70,0 			"/>
		</g>
	</g>
</pattern>
<pattern  x="-59.5" y="647.598" width="70" height="61.426" patternUnits="userSpaceOnUse" id="New_Pattern_Swatch_3" viewBox="0 -61.426 70 61.426" overflow="visible">
	<g>
		<polygon fill="none" points="0,0 70,0 70,-61.426 0,-61.426 		"/>
		<g>
			<polygon fill="none" points="0,-61.426 70,-61.426 70,0 0,0 			"/>
			<polygon fill="#013047" points="70,-61.426 0,-61.426 0,0 70,0 			"/>
		</g>
	</g>
</pattern>
<g>
	<pattern  id="SVGID_1_" xlink:href="#New_Pattern_Swatch_3" patternTransform="matrix(1 0 0 -1 14.4995 -16891.4473)">
	</pattern>
	<path fill="url(#SVGID_1_)" d="M316.359,393.085c-31.444-29.828-59.881-36.487-82.903-33.481l-2.916-8.98l-9.023,2.929l2.551,7.86
		c-30.77,7.83-49.711,31.641-49.711,31.641c0.657,2.456,1.674,4.84,2.986,7.141c0.246-0.289,0.491-0.561,0.737-0.844l2.526,7.789
		l4.514-1.465l-3.377-10.408c0.783-0.84,1.565-1.656,2.345-2.449l7.164,22.062l4.514-1.464l-7.888-24.299
		c0.854-0.805,1.704-1.582,2.547-2.334l10.637,32.777l4.514-1.465l-11.245-34.643c0.885-0.723,1.761-1.42,2.625-2.085l13.319,41.035
		l4.514-1.466l-13.806-42.531c0.916-0.643,1.821-1.264,2.705-1.842l15.493,47.735l4.516-1.465l-15.854-48.853
		c0.958-0.563,1.89-1.088,2.791-1.578l17.396,53.609l4.514-1.465l-17.63-54.32c1.02-0.482,1.981-0.914,2.883-1.297l19.406,59.796
		l4.513-1.465l-19.486-60.034c2.419-0.824,3.796-1.106,3.796-1.106l20.492,64.452l2.918,8.991l9.024-2.929l-2.558-7.879
		C278.288,425.831,300.655,415.064,316.359,393.085z M252.664,418.792l-2.56-7.883c7.907-2.099,13.742-9.282,13.744-17.849
		c0.002-10.215-8.273-18.496-18.487-18.496c-2.347-0.002-4.582,0.451-6.646,1.248l-1.935-5.959c2.688-0.926,5.575-1.435,8.584-1.434
		c14.393,0.005,26.055,11.512,26.05,25.709C271.412,405.818,263.497,415.676,252.664,418.792z M262.02,422.277
		c9.605-5.697,16.05-16.166,16.053-28.146c0.005-11.147-5.571-20.989-14.083-26.897c12.937,3.914,27.008,11.93,41.869,26.027
		C294.275,409.471,278.438,418.518,262.02,422.277z"/>
	<g>
		<pattern  id="SVGID_2_" xlink:href="#New_Pattern_Swatch_2" patternTransform="matrix(1 0 0 -1 14.4995 -16891.4473)">
		</pattern>
		<path fill="url(#SVGID_2_)" d="M80.263,160.399c18.018-37.687,48.581-68.216,86.286-86.197
			c-1.367-5.659-2.115-11.547-2.115-17.606c0-0.431,0.025-0.86,0.033-1.289C116,75.88,77.31,114.453,57.056,162.45
			c6.08-1.398,12.418-2.161,18.945-2.161C77.431,160.289,78.851,160.328,80.263,160.399z"/>
		<pattern  id="SVGID_3_" xlink:href="#New_Pattern_Swatch_2" patternTransform="matrix(1 0 0 -1 14.4995 -16891.4473)">
		</pattern>
		<path fill="url(#SVGID_3_)" d="M324.096,74.492c37.503,18.063,67.866,48.582,85.763,86.177c2.623-0.247,5.279-0.38,7.969-0.38
			c5.042,0,9.972,0.464,14.764,1.314c-20.251-47.361-58.492-85.447-106.334-105.975c0.005,0.324,0.025,0.643,0.025,0.967
			C326.281,62.756,325.511,68.747,324.096,74.492z"/>
		<pattern  id="SVGID_4_" xlink:href="#New_Pattern_Swatch_2" patternTransform="matrix(1 0 0 -1 14.4995 -16891.4473)">
		</pattern>
		<path fill="url(#SVGID_4_)" d="M417.826,315.559c-2.365,0-4.698-0.117-7.012-0.31c-17.443,37.874-47.456,68.744-84.718,87.263
			c-0.507,7.678-2.161,15.057-4.827,21.971c50.949-20.295,91.634-60.299,112.283-110.401
			C428.467,315.042,423.212,315.559,417.826,315.559z"/>
		<pattern  id="SVGID_5_" xlink:href="#New_Pattern_Swatch_2" patternTransform="matrix(1 0 0 -1 14.4995 -16891.4473)">
		</pattern>
		<path fill="url(#SVGID_5_)" d="M79.29,315.477c-1.093,0.043-2.186,0.082-3.289,0.082c-6.892,0-13.579-0.832-19.966-2.389
			c20.648,50.791,61.868,91.299,113.528,111.604c-2.688-6.883-4.373-14.231-4.918-21.883
			C127.111,384.453,96.866,353.5,79.29,315.477z"/>
	</g>
	<g>
		<pattern  id="SVGID_6_" xlink:href="#New_Pattern_Swatch_1" patternTransform="matrix(1 0 0 -1 14.4995 -16891.4473)">
		</pattern>
		<path fill="url(#SVGID_6_)" d="M376.223,171.359c5.664-3.26,11.762-5.898,18.214-7.764c-16.236-32.483-42.78-58.917-75.342-75.025
			c-2.842,6.021-6.498,11.604-10.77,16.685C337.609,119.181,361.527,142.525,376.223,171.359z"/>
		<pattern  id="SVGID_7_" xlink:href="#New_Pattern_Swatch_1" patternTransform="matrix(1 0 0 -1 14.4995 -16891.4473)">
		</pattern>
		<path fill="url(#SVGID_7_)" d="M182.39,105.258c-4.272-5.084-7.927-10.667-10.769-16.686
			c-32.313,15.984-58.688,42.14-74.957,74.281c6.536,1.651,12.746,4.066,18.524,7.144
			C129.94,141.788,153.568,118.961,182.39,105.258z"/>
		<pattern  id="SVGID_8_" xlink:href="#New_Pattern_Swatch_1" patternTransform="matrix(1 0 0 -1 14.4995 -16891.4473)">
		</pattern>
		<path fill="url(#SVGID_8_)" d="M115.191,305.85c-5.78,3.074-11.994,5.493-18.529,7.146c15.254,30.146,39.392,55.036,68.988,71.201
			c1.215-6.729,3.34-13.155,6.233-19.168C147.83,351.094,128.106,330.546,115.191,305.85z"/>
		<pattern  id="SVGID_9_" xlink:href="#New_Pattern_Swatch_1" patternTransform="matrix(1 0 0 -1 14.4995 -16891.4473)">
		</pattern>
		<path fill="url(#SVGID_9_)" d="M318.831,365.029c2.892,6.009,5.015,12.428,6.23,19.147c29.824-16.301,54.119-41.454,69.348-71.931
			c-6.439-1.868-12.533-4.5-18.188-7.76C363.325,329.789,343.326,350.842,318.831,365.029z"/>
	</g>
	<g>
		<g>
			<pattern  id="SVGID_10_" xlink:href="#New_Pattern_Swatch_3" patternTransform="matrix(1 0 0 -1 14.4995 -16891.4473)">
			</pattern>
			<path fill="url(#SVGID_10_)" d="M410.493,292.291c-12.996-3.083-22.366-12.448-23.692-22.555
				c-2.892,13.51,6.559,27.177,21.352,30.683c14.043,3.332,27.896-3.669,32.259-15.821
				C434.201,291.795,422.532,295.146,410.493,292.291z"/>
			<pattern  id="SVGID_11_" xlink:href="#New_Pattern_Swatch_3" patternTransform="matrix(1 0 0 -1 14.4995 -16891.4473)">
			</pattern>
			<circle fill="url(#SVGID_11_)" cx="432.257" cy="179.692" r="8.154"/>
			<pattern  id="SVGID_12_" xlink:href="#New_Pattern_Swatch_3" patternTransform="matrix(1 0 0 -1 14.4995 -16891.4473)">
			</pattern>
			<path fill="url(#SVGID_12_)" d="M425.873,227.462c-6.766-1.602-13.531-1.311-19.771,0.521c1.538-5.792,5.273-18.096,10.75-25.134
				c7.337-9.429,19.379-2.021,8.807,20.987c15.033,7.011,17.386,5.224,31.871,25.83c0,0-2.853-19.502-21.503-29.406
				c3.485-12.404-1.974-37.356-17.588-28.33c0,0,0-0.002-0.006-0.002c-24.564,5.921-32.151,31.797-32.151,31.797
				c7.414-9.858,14.097-15.594,19.438-18.931c-8.278,13.17-8.34,22.431-8.89,27.299c-8.568,5.225-15.137,13.762-17.646,24.333
				c-0.86,3.636-1.182,7.276-1.023,10.83c0.074-2.13,0.351-4.282,0.859-6.437c4.414-18.606,24.202-29.851,44.194-25.106
				c20.002,4.743,32.626,23.676,28.213,42.282c-4.389,18.504-23.973,29.717-43.849,25.186c0.104,0.026,0.203,0.051,0.315,0.079
				c20.82,4.939,41.721-8.021,46.69-28.952C459.552,253.373,446.692,232.4,425.873,227.462z"/>
		</g>
	</g>
	<g>
		<pattern  id="SVGID_13_" xlink:href="#New_Pattern_Swatch_2" patternTransform="matrix(1 0 0 -1 14.4995 -16891.4473)">
		</pattern>
		<path fill="url(#SVGID_13_)" d="M61.025,261.828c0,0,24.033,15.949,42.388-15.954c14.288-18.313,25.13-15.951,29.498-26.878
			c4.373-10.924-15.29,8.088-27.533,8.088c-12.231,0,17.485-13.333,26.222-26.442c8.741-13.108-27.309,12.895-32.776,16.609
			c-5.456,3.714,15.298-24.472,18.799-31.907c3.492-7.427-10.496-5.459-26.444,26.88c-6.557,12.017-1.969-19.844,1.97-30.462
			c3.935-10.618-5.03-11.057-18.357,36.142c-15.079,22.071-20.536-3.495-28.621-8.085c-8.087-4.589-13.116-5.682,1.525,13.55
			C62.331,242.596,44.633,236.261,61.025,261.828z"/>
		<pattern  id="SVGID_14_" xlink:href="#New_Pattern_Swatch_3" patternTransform="matrix(1 0 0 -1 14.4995 -16891.4473)">
		</pattern>
		<path fill="url(#SVGID_14_)" d="M90.982,295.938c0,0-24.032,15.948-42.389-15.953c-14.29-18.315-25.128-15.953-29.503-26.877
			c-4.365-10.924,15.297,8.082,27.536,8.082c12.235,0-17.481-13.328-26.223-26.437c-8.74-13.113,27.314,12.894,32.779,16.604
			c5.459,3.715-15.303-24.473-18.795-31.901c-3.492-7.429,10.488-5.46,26.444,26.88c6.551,12.014,1.964-19.844-1.971-30.462
			c-3.934-10.621,5.031-11.06,18.354,36.142c15.078,22.068,20.533-3.498,28.623-8.088c8.084-4.587,13.11-5.679-1.524,13.553
			C89.676,276.707,109.433,281.677,90.982,295.938z"/>
	</g>
	<pattern  id="SVGID_15_" xlink:href="#New_Pattern_Swatch_3" patternTransform="matrix(1 0 0 -1 14.4995 -16891.4473)">
	</pattern>
	<path fill="url(#SVGID_15_)" stroke="#FFFFFF" stroke-width="0.25" stroke-miterlimit="10" d="M294.584,70.609
		c1.842-1.669-5.197-9.044-10.225-15.244c-5.021-6.197,8.879-9.881-8.042-31.493c-16.917-21.612-51.591-22.286-69.692-2.684
		c-18.091,19.602-9.373,41.553-3.007,51.936c6.359,10.387,14.74,12.397,10.389,38.864l53.099,1.009c0,0-3.184-11.892,15.75-9.887
		c8.854-3.301,1.669-9.881,4.357-15.244c2.682-5.358-0.671-4.521-2.013-3.853c-1.341,0.669,6.703-3.521,2.013-6.202
		C284.525,71.951,292.737,72.285,294.584,70.609z M269.454,45.818c-7.373,2.176-10.226,3.852-9.218,10.72
		c1.002,6.869-12.895,10.055-17.926,7.371c-5.022-2.678-7.534-1.002-7.534-1.002c3.851,10.218-1.347,9.881-6.364,14.74
		c-5.029,4.86-19.437-1.339-17.76-8.544c1.68-7.202-8.544-10.217-5.025-17.425c3.515-7.2,0.671-11.384,4.856-16.078
		c4.19-4.694,3.017-10.057,10.551-12.399c7.544-2.345,2.018-3.687,16.254-5.529c14.241-1.842,6.533,4.355,20.434,4.523
		C271.628,22.366,276.822,43.639,269.454,45.818z"/>
	<path fill="#FFFFFF" d="M281.02,447.145"/>
	<g>
		<pattern  id="SVGID_16_" xlink:href="#New_Pattern_Swatch_3" patternTransform="matrix(1 0 0 -1 14.4995 -16891.4473)">
		</pattern>
		<path fill="url(#SVGID_16_)" d="M236.306,316.514l-11.328-31.434h-53.13l-10.802,31.434h-30.584l61.813-157.179h12.061
			l62.348,157.179H236.306z M198.304,206.756l-18.629,57.255h37.262L198.304,206.756z"/>
		<pattern  id="SVGID_17_" xlink:href="#New_Pattern_Swatch_3" patternTransform="matrix(1 0 0 -1 14.4995 -16891.4473)">
		</pattern>
		<path fill="url(#SVGID_17_)" d="M266.372,306.883l10.16-24.66c10.861,7.617,21.561,11.426,32.067,11.426
			c16.163,0,24.243-5.646,24.243-16.936c0-5.292-1.906-10.34-5.718-15.134c-3.811-4.804-11.661-10.183-23.55-16.142
			c-11.888-5.965-19.901-10.863-24.028-14.713c-4.129-3.851-7.302-8.417-9.527-13.708c-2.223-5.292-3.337-11.151-3.337-17.571
			c0-11.999,4.398-21.948,13.184-29.848c8.783-7.909,20.056-11.853,33.816-11.853c17.92,0,31.082,3.355,39.479,10.052l-8.357,23.712
			c-9.669-6.919-19.863-10.374-30.595-10.374c-6.349,0-11.271,1.678-14.763,5.025c-3.487,3.353-5.239,7.715-5.239,13.073
			c0,8.894,9.843,18.129,29.527,27.732c10.374,5.079,17.854,9.761,22.443,14.024c4.588,4.263,8.077,9.248,10.479,14.922
			c2.396,5.682,3.599,12.017,3.599,19.002c0,12.558-4.955,22.9-14.871,31.008c-9.912,8.119-23.194,12.178-39.85,12.178
			C291.066,318.102,278.014,314.359,266.372,306.883z"/>
	</g>
</g>
</svg>
