<?xml version="1.0" encoding="utf-8"?>
<!-- Generator: Adobe Illustrator 16.0.0, SVG Export Plug-In . SVG Version: 6.00 Build 0)  -->
<!DOCTYPE svg PUBLIC "-//W3C//DTD SVG 1.1//EN" "http://www.w3.org/Graphics/SVG/1.1/DTD/svg11.dtd">
<svg version="1.1" id="Layer_1" xmlns="http://www.w3.org/2000/svg" xmlns:xlink="http://www.w3.org/1999/xlink" x="0px" y="0px"
	 width="476px" height="454.195px" viewBox="0 0 476 454.195" enable-background="new 0 0 476 454.195" xml:space="preserve">
<pattern  x="-45" y="-51.7" width="70" height="61.426" patternUnits="userSpaceOnUse" id="New_Pattern_Swatch_1" viewBox="0 -61.426 70 61.426" overflow="visible">
	<g>
		<polygon fill="none" points="0,0 70,0 70,-61.426 0,-61.426 		"/>
		<polygon fill="#8FCAE5" points="70,0 0,0 0,-61.426 70,-61.426 		"/>
	</g>
</pattern>
<pattern  x="-45" y="-51.7" width="70" height="61.426" patternUnits="userSpaceOnUse" id="New_Pattern_Swatch_2" viewBox="0 -61.426 70 61.426" overflow="visible">
	<g>
		<polygon fill="none" points="0,0 70,0 70,-61.426 0,-61.426 		"/>
		<polygon fill="#209EBB" points="70,0 0,0 0,-61.426 70,-61.426 		"/>
	</g>
</pattern>
<pattern  x="-45" y="-51.7" width="70" height="61.426" patternUnits="userSpaceOnUse" id="New_Pattern_Swatch_3" viewBox="0 -61.426 70 61.426" overflow="visible">
	<g>
		<polygon fill="none" points="0,0 70,0 70,-61.426 0,-61.426 		"/>
		<polygon fill="#013047" points="70,0 0,0 0,-61.426 70,-61.426 		"/>
	</g>
</pattern>
<g>
	<path fill="url(#New_Pattern_Swatch_2)" d="M80.263,160.399c18.018-37.687,48.581-68.216,86.286-86.197
		c-1.367-5.659-2.115-11.547-2.115-17.606c0-0.431,0.025-0.86,0.033-1.289C116,75.88,77.31,114.453,57.056,162.45
		c6.08-1.398,12.418-2.161,18.945-2.161C77.431,160.289,78.851,160.328,80.263,160.399z"/>
	<path fill="url(#New_Pattern_Swatch_2)" d="M324.096,74.492c37.503,18.063,67.866,48.582,85.763,86.177
		c2.623-0.247,5.279-0.38,7.969-0.38c5.042,0,9.971,0.464,14.763,1.314c-20.251-47.361-58.492-85.447-106.334-105.975
		c0.005,0.324,0.026,0.643,0.026,0.967C326.282,62.756,325.511,68.747,324.096,74.492z"/>
	<path fill="url(#New_Pattern_Swatch_2)" d="M417.827,315.558c-2.366,0-4.699-0.117-7.012-0.309
		c-17.443,37.874-47.456,68.744-84.718,87.262c-0.507,7.679-2.161,15.057-4.827,21.971c50.949-20.295,91.634-60.299,112.283-110.401
		C428.467,315.042,423.212,315.558,417.827,315.558z"/>
	<path fill="url(#New_Pattern_Swatch_2)" d="M79.29,315.476c-1.092,0.043-2.185,0.082-3.289,0.082
		c-6.891,0-13.579-0.832-19.966-2.388c20.649,50.791,61.869,91.299,113.529,111.603c-2.689-6.883-4.373-14.231-4.918-21.883
		C127.111,384.453,96.866,353.5,79.29,315.476z"/>
</g>
<g>
	<path fill="url(#New_Pattern_Swatch_1)" d="M376.223,171.359c5.664-3.26,11.762-5.898,18.214-7.764
		c-16.236-32.483-42.78-58.917-75.342-75.025c-2.842,6.021-6.498,11.604-10.769,16.685
		C337.609,119.181,361.527,142.525,376.223,171.359z"/>
	<path fill="url(#New_Pattern_Swatch_1)" d="M182.39,105.258c-4.273-5.084-7.927-10.667-10.769-16.686
		c-32.312,15.984-58.688,42.14-74.957,74.281c6.536,1.651,12.746,4.066,18.525,7.144C129.94,141.788,153.568,118.961,182.39,105.258
		z"/>
	<path fill="url(#New_Pattern_Swatch_1)" d="M115.191,305.85c-5.781,3.074-11.994,5.493-18.53,7.146
		c15.254,30.146,39.392,55.036,68.989,71.201c1.215-6.729,3.34-13.155,6.233-19.168C147.83,351.094,128.106,330.546,115.191,305.85z
		"/>
	<path fill="url(#New_Pattern_Swatch_1)" d="M318.832,365.03c2.891,6.008,5.014,12.427,6.23,19.147
		c29.824-16.301,54.119-41.454,69.348-71.931c-6.44-1.868-12.534-4.5-18.188-7.759C363.326,329.789,343.327,350.842,318.832,365.03z
		"/>
</g>
<path fill="#FFFFFF" d="M281.02,447.145"/>
<g>
	<path fill="url(#New_Pattern_Swatch_3)" d="M236.306,316.514l-11.328-31.434h-53.13l-10.802,31.434h-30.584l61.814-157.179h12.06
		l62.348,157.179H236.306z M198.304,206.756l-18.629,57.255h37.262L198.304,206.756z"/>
	<path fill="url(#New_Pattern_Swatch_3)" d="M266.372,306.883l10.16-24.661c10.862,7.618,21.561,11.427,32.068,11.427
		c16.163,0,24.243-5.646,24.243-16.936c0-5.292-1.906-10.34-5.718-15.134c-3.81-4.804-11.661-10.182-23.549-16.142
		c-11.888-5.965-19.902-10.863-24.029-14.713c-4.129-3.85-7.302-8.417-9.527-13.708c-2.223-5.292-3.337-11.151-3.337-17.571
		c0-11.999,4.398-21.948,13.183-29.848c8.784-7.909,20.056-11.853,33.817-11.853c17.92,0,31.082,3.355,39.479,10.052l-8.358,23.712
		c-9.669-6.919-19.863-10.374-30.595-10.374c-6.348,0-11.271,1.678-14.762,5.025c-3.488,3.353-5.24,7.715-5.24,13.073
		c0,8.894,9.843,18.129,29.528,27.732c10.374,5.079,17.854,9.761,22.443,14.024c4.588,4.263,8.077,9.248,10.479,14.922
		c2.396,5.682,3.598,12.017,3.598,19.002c0,12.558-4.955,22.9-14.871,31.008c-9.912,8.119-23.194,12.178-39.849,12.178
		C291.066,318.102,278.014,314.359,266.372,306.883z"/>
</g>
</svg>
