<?xml version="1.0" encoding="utf-8"?>
<!-- Generator: Adobe Illustrator 21.0.0, SVG Export Plug-In . SVG Version: 6.00 Build 0)  -->
<svg version="1.1" id="Objects" xmlns="http://www.w3.org/2000/svg" xmlns:xlink="http://www.w3.org/1999/xlink" x="0px" y="0px"
	 viewBox="0 0 800 581.9" style="enable-background:new 0 0 800 581.9;" xml:space="preserve">
<style type="text/css">
	.st0{fill:#0072D9;}
	.st1{fill:#FFD34D;}
	.st2{fill:#F2BA49;}
	.st3{fill:#005EB3;}
	.st4{fill:#052E93;}
	.st5{fill:#FFFFFF;}
</style>
<g>
	<polygon class="st0" points="301.5,127.7 301.5,213.9 269,181.4 236.5,213.9 236.5,127.7 	"/>
	<circle class="st1" cx="269" cy="96" r="58.1"/>
	<g>
		<path class="st2" d="M269,145.5c-27.3,0-49.6-22.2-49.6-49.6c0-27.3,22.2-49.6,49.6-49.6s49.6,22.2,49.6,49.6
			C318.6,123.3,296.4,145.5,269,145.5z M269,50.2c-25.2,0-45.7,20.5-45.7,45.7c0,25.2,20.5,45.7,45.7,45.7
			c25.2,0,45.7-20.5,45.7-45.7C314.7,70.7,294.2,50.2,269,50.2z"/>
	</g>
	<polygon class="st2" points="269,63.8 276.2,86 299.6,86 280.7,99.7 287.9,121.9 269,108.2 250.1,121.9 257.4,99.7 238.5,86 
		261.8,86 	"/>
	<circle class="st1" cx="216.1" cy="148.9" r="5.2"/>
	<circle class="st2" cx="203.3" cy="122" r="3.6"/>
	<polygon class="st1" points="263.9,212.4 258.5,212.4 258.5,207 255.5,207 255.5,212.4 250.1,212.4 250.1,215.4 255.5,215.4 
		255.5,220.8 258.5,220.8 258.5,215.4 263.9,215.4 	"/>
	<circle class="st2" cx="267.9" cy="203.1" r="3.1"/>
	<circle class="st1" cx="213.7" cy="49.1" r="4.3"/>
	<circle class="st1" cx="316.6" cy="41.3" r="3.5"/>
	<polygon class="st2" points="329.8,55.5 326.2,55.5 326.2,51.9 324.2,51.9 324.2,55.5 320.6,55.5 320.6,57.5 324.2,57.5 
		324.2,61.1 326.2,61.1 326.2,57.5 329.8,57.5 	"/>
	<circle class="st2" cx="312.9" cy="189.2" r="2.8"/>
</g>
<g>
	<g>
		<path class="st2" d="M659.3,436.5c-48.7-22.9-61-47-56.3-62c3.8-11.9,17.5-17.6,35-14.4l-2.3,12.8c-10.5-1.9-18.7,0.4-20.3,5.6
			c-2.6,8.1,8.5,27.1,49.4,46.3L659.3,436.5z"/>
	</g>
	<g>
		<path class="st2" d="M705.3,436.5l-5.5-11.8c40.9-19.2,52-38.2,49.4-46.3c-1.7-5.2-9.8-7.4-20.3-5.6l-2.3-12.8
			c17.5-3.1,31.2,2.6,35,14.4C766.3,389.5,754,413.7,705.3,436.5z"/>
	</g>
	<rect x="676.3" y="420" class="st2" width="12" height="67.2"/>
	<path class="st1" d="M618.2,345.1l31.6,85.8c5,13.6,18,22.7,32.5,22.7s27.5-9,32.5-22.7l31.6-85.8H618.2z"/>
	<path class="st1" d="M689.4,487.2h-14.1c-12.8,0-23.1,10.3-23.1,23.1h60.3C712.5,497.5,702.1,487.2,689.4,487.2z"/>
	
		<rect x="676.3" y="482.5" transform="matrix(-1.836970e-16 1 -1 -1.836970e-16 1198.4512 -166.1625)" class="st2" width="12" height="67.2"/>
	<polygon class="st2" points="682.3,359.1 689.5,381.3 712.8,381.3 694,395 701.2,417.2 682.3,403.5 663.4,417.2 670.6,395 
		651.8,381.3 675.1,381.3 	"/>
	<polygon class="st2" points="640.5,450.4 640.5,443.9 636.8,443.9 636.8,450.4 630.3,450.4 630.3,454 636.8,454 636.8,460.6 
		640.5,460.6 640.5,454 647,454 647,450.4 	"/>
	<circle class="st1" cx="622.3" cy="434.6" r="4.3"/>
	<polygon class="st2" points="664.6,332.1 664.6,326.9 661.7,326.9 661.7,332.1 656.5,332.1 656.5,335 661.7,335 661.7,340.2 
		664.6,340.2 664.6,335 669.8,335 669.8,332.1 	"/>
	<circle class="st1" cx="722.2" cy="450.2" r="3.4"/>
	<circle class="st1" cx="760.7" cy="345.9" r="3.8"/>
	<circle class="st1" cx="710.6" cy="324.2" r="5.4"/>
	<circle class="st2" cx="724.4" cy="330.2" r="3.3"/>
</g>
<g>
	<rect x="523.8" y="41.7" class="st3" width="87.8" height="28.4"/>
	
		<rect x="537.3" y="85.9" transform="matrix(0.4778 -0.8785 0.8785 0.4778 219.9507 582.1009)" class="st0" width="124.6" height="40.2"/>
	
		<rect x="473.7" y="85.9" transform="matrix(-0.4778 -0.8785 0.8785 -0.4778 698.8435 627.5374)" class="st0" width="124.6" height="40.2"/>
	<circle class="st1" cx="567.8" cy="164.9" r="53.5"/>
	<g>
		<path class="st2" d="M567.8,210.5c-25.2,0-45.6-20.5-45.6-45.6s20.5-45.6,45.6-45.6s45.6,20.5,45.6,45.6S592.9,210.5,567.8,210.5z
			 M567.8,122.8c-23.2,0-42.1,18.9-42.1,42.1s18.9,42.1,42.1,42.1s42.1-18.9,42.1-42.1S591,122.8,567.8,122.8z"/>
	</g>
	<polygon class="st2" points="567.8,135.3 574.4,155.7 595.9,155.7 578.5,168.4 585.1,188.8 567.8,176.2 550.4,188.8 557,168.4 
		539.6,155.7 561.1,155.7 	"/>
	<polygon class="st2" points="610.4,214.4 610.4,208.9 607.4,208.9 607.4,214.4 602,214.4 602,217.4 607.4,217.4 607.4,222.8 
		610.4,222.8 610.4,217.4 615.9,217.4 615.9,214.4 	"/>
	<polygon class="st1" points="509.3,128.1 509.3,123.8 506.9,123.8 506.9,128.1 502.6,128.1 502.6,130.5 506.9,130.5 506.9,134.8 
		509.3,134.8 509.3,130.5 513.6,130.5 513.6,128.1 	"/>
	<circle class="st2" cx="502.5" cy="159" r="3.1"/>
	<circle class="st1" cx="513.1" cy="196.2" r="3.5"/>
	<circle class="st2" cx="520.8" cy="208.9" r="4.7"/>
	<circle class="st1" cx="637.3" cy="165.6" r="5.7"/>
</g>
<g>
	<rect x="405.9" y="431.3" class="st1" width="13.1" height="45.8"/>
	<g>
		<path class="st2" d="M386.8,414.5h-30.1c-13.8,0-24.9-11.2-24.9-24.9c0-13.8,11.2-24.9,24.9-24.9h17.9v12.9h-17.9
			c-6.6,0-12,5.4-12,12c0,6.6,5.4,12,12,12h30.1V414.5z"/>
	</g>
	<g>
		<path class="st2" d="M438.1,414.5h30.1c13.8,0,24.9-11.2,24.9-24.9c0-13.8-11.2-24.9-24.9-24.9h-17.9v12.9h17.9
			c6.6,0,12,5.4,12,12c0,6.6-5.4,12-12,12h-30.1V414.5z"/>
	</g>
	<path class="st2" d="M399.8,413v13.6c0,4.9,4,8.9,8.9,8.9h7.4c4.9,0,8.9-4,8.9-8.9V413H399.8z"/>
	<path class="st1" d="M363.9,359.7v18.6c0,26.8,21.8,48.6,48.6,48.6l0,0c26.8,0,48.6-21.8,48.6-48.6v-18.6H363.9z"/>
	<rect x="355.7" y="346.8" class="st2" width="113.5" height="12.8"/>
	<path class="st2" d="M426.8,477.1h-28.7c-7.3,0-13.1,5.9-13.1,13.1h55C440,483,434.1,477.1,426.8,477.1z"/>
	<rect x="375.1" y="490.2" class="st1" width="74.7" height="27.5"/>
	<rect x="398.7" y="497.7" class="st2" width="27.5" height="12.5"/>
	<polygon class="st2" points="412.5,367.2 418.7,379.9 432.7,381.9 422.6,391.8 425,405.7 412.5,399.2 399.9,405.7 402.3,391.8 
		392.2,381.9 406.2,379.9 	"/>
	<polygon class="st1" points="457.5,425.4 452.4,425.4 452.4,420.3 449.5,420.3 449.5,425.4 444.4,425.4 444.4,428.3 449.5,428.3 
		449.5,433.4 452.4,433.4 452.4,428.3 457.5,428.3 	"/>
	<polygon class="st2" points="385.8,438.1 379.1,438.1 379.1,431.4 375.4,431.4 375.4,438.1 368.6,438.1 368.6,441.8 375.4,441.8 
		375.4,448.6 379.1,448.6 379.1,441.8 385.8,441.8 	"/>
	<circle class="st1" cx="365" cy="452.2" r="3.6"/>
	<circle class="st1" cx="341.1" cy="356.6" r="4.8"/>
	<circle class="st2" cx="396.4" cy="317.2" r="4.2"/>
	<circle class="st1" cx="434.2" cy="335.6" r="4.9"/>
	<circle class="st2" cx="448.5" cy="331.5" r="4.1"/>
</g>
<g>
	<g>
		<rect x="94.1" y="328.8" class="st2" width="120.4" height="26.6"/>
		<path class="st0" d="M110.5,342.1v72.6c0,5.5,4.4,9.9,9.9,9.9h19.4v-82.5H110.5z"/>
		<path class="st4" d="M169,342.1v82.5h19.4c5.5,0,9.9-4.4,9.9-9.9v-72.6H169z"/>
		<circle class="st1" cx="154.3" cy="488.6" r="45.4"/>
		<g>
			<path class="st2" d="M154.3,527.3c-21.3,0-38.7-17.4-38.7-38.7c0-21.3,17.4-38.7,38.7-38.7c21.3,0,38.7,17.4,38.7,38.7
				C193,509.9,175.7,527.3,154.3,527.3z M154.3,452.9c-19.7,0-35.7,16-35.7,35.7c0,19.7,16,35.7,35.7,35.7c19.7,0,35.7-16,35.7-35.7
				C190,468.9,174,452.9,154.3,452.9z"/>
		</g>
		<circle class="st2" cx="91.3" cy="397.4" r="3.8"/>
		<circle class="st1" cx="102.2" cy="411.8" r="5.2"/>
		<circle class="st1" cx="224" cy="379.6" r="3.7"/>
		<circle class="st1" cx="101.3" cy="499.3" r="4"/>
		<circle class="st1" cx="104.8" cy="512.1" r="2.8"/>
		<polygon class="st1" points="94.4,437 94.4,431.6 91.4,431.6 91.4,437 86,437 86,440 91.4,440 91.4,445.5 94.4,445.5 94.4,440 
			99.8,440 99.8,437 		"/>
		<polygon class="st2" points="218.4,388.8 213,388.8 213,383.4 210,383.4 210,388.8 204.6,388.8 204.6,391.8 210,391.8 210,397.2 
			213,397.2 213,391.8 218.4,391.8 		"/>
		<circle class="st2" cx="204.4" cy="454.5" r="4.6"/>
		<rect x="139.7" y="342.1" class="st5" width="29.2" height="82.5"/>
		<path class="st2" d="M147.6,443.7c-0.2-0.7-0.4-1.5-0.4-2.3c0-4,3.2-7.2,7.2-7.2c4,0,7.2,3.2,7.2,7.2c0,0.8-0.1,1.6-0.4,2.3
			c1.7,0.3,3.3,0.6,4.9,1c0.3-1.1,0.5-2.2,0.5-3.3c0-6.7-5.5-12.2-12.2-12.2c-6.7,0-12.2,5.5-12.2,12.2c0,1.2,0.2,2.3,0.5,3.3
			C144.2,444.3,145.9,443.9,147.6,443.7z"/>
		<path class="st1" d="M154.3,419.9c-2.8,0-5.1,2.3-5.1,5.1v9.3c0,2.8,2.3,5.1,5.1,5.1c2.8,0,5.1-2.3,5.1-5.1V425
			C159.4,422.2,157.1,419.9,154.3,419.9z"/>
	</g>
	<polygon class="st2" points="154.3,457 161.5,479.2 184.9,479.2 166,492.9 173.2,515.1 154.3,501.4 135.5,515.1 142.7,492.9 
		123.8,479.2 147.1,479.2 	"/>
</g>
</svg>
