<?xml version="1.0" encoding="utf-8"?>
<!-- Generator: Adobe Illustrator 21.0.0, SVG Export Plug-In . SVG Version: 6.00 Build 0)  -->
<svg version="1.1" id="Layer_1" xmlns="http://www.w3.org/2000/svg" xmlns:xlink="http://www.w3.org/1999/xlink" x="0px" y="0px"
	 viewBox="0 0 270 512" style="enable-background:new 0 0 270 512;" xml:space="preserve">
<style type="text/css">
	.st0{fill:#032973;}
	.st1{fill:#D1D1D1;}
	.st2{fill:#FFFFFF;}
</style>
<rect x="186" y="99" class="st1" width="70" height="18.1"/>
<rect x="186" y="138.4" class="st1" width="40.6" height="18.1"/>
<rect x="186" y="177.7" class="st0" width="70" height="18.1"/>
<rect x="186" y="217.1" class="st1" width="40.6" height="18.1"/>
<rect x="186" y="256.5" class="st1" width="70" height="18.1"/>
<path d="M196.9,377.5c0,50.4-41,91.4-91.4,91.4S14,427.9,14,377.5c0-32.7,17.2-62.4,45.2-78.8V91.4c0-25.5,20.8-46.3,46.3-46.3
	s46.3,20.8,46.3,46.3v207.3C179.7,315.1,196.9,344.8,196.9,377.5L196.9,377.5z"/>
<path class="st2" d="M178.8,377.5c0-27.7-15.4-52.8-40.2-65.4l-4.9-2.5V91.4c0-15.6-12.7-28.2-28.2-28.2S77.2,75.8,77.2,91.4v218.2
	l-4.9,2.5c-24.8,12.6-40.2,37.7-40.2,65.4c0,40.5,32.9,73.4,73.4,73.4S178.8,417.9,178.8,377.5L178.8,377.5z"/>
<path class="st0" d="M163.8,374.4c0,32.2-26.2,58.3-58.3,58.3c-32.2,0-58.3-26.2-58.3-58.3c0-26.4,17.8-49.5,43.3-56.3l3.4-0.9
	V176.7h23.3v140.4l3.4,0.9C146,324.9,163.8,348,163.8,374.4L163.8,374.4z"/>
<path class="st2" d="M111.3,341.4c-1.4-6.2-7.6-10.2-13.9-8.8c-22.1,5-37.6,24.3-37.6,47c0,6.4,5.2,11.7,11.7,11.7
	c6.4,0,11.7-5.2,11.7-11.7c0-11.5,8.1-21.8,19.4-24.3C108.8,353.9,112.8,347.6,111.3,341.4L111.3,341.4z"/>
</svg>
